<svg width="20" height="20" viewBox="0 0 20 20" fill="none" xmlns="http://www.w3.org/2000/svg">
<path d="M10 3.82917C9.09201 2.99426 7.90352 2.53088 6.67001 2.53084C6.01713 2.53152 5.37082 2.6613 4.76829 2.91273C4.16576 3.16415 3.6189 3.53225 3.15918 3.99584C1.19834 5.965 1.19918 9.04501 3.16084 11.0058L9.27084 17.1158C9.41251 17.365 9.68584 17.5258 10 17.5258C10.129 17.5246 10.2559 17.4931 10.3705 17.4339C10.4852 17.3747 10.5843 17.2895 10.66 17.185L16.8392 11.0058C18.8008 9.04417 18.8008 5.965 16.8375 3.9925C16.378 3.52977 15.8316 3.16242 15.2297 2.91157C14.6277 2.66073 13.9821 2.53134 13.33 2.53084C12.0965 2.53104 10.9081 2.9944 10 3.82917ZM15.6592 5.17084C16.9617 6.48 16.9625 8.52501 15.6608 9.82751L10 15.4883L4.33918 9.82751C3.03751 8.52501 3.03834 6.48001 4.33751 5.17417C4.97084 4.54417 5.79918 4.1975 6.67001 4.1975C7.54084 4.1975 8.36584 4.54417 8.99418 5.1725L9.41084 5.58917C9.48817 5.66663 9.58 5.72807 9.6811 5.77C9.78219 5.81193 9.89056 5.83351 10 5.83351C10.1095 5.83351 10.2178 5.81193 10.3189 5.77C10.42 5.72807 10.5119 5.66663 10.5892 5.58917L11.0058 5.1725C12.2658 3.915 14.4008 3.91834 15.6592 5.17084Z" fill="#DC3845"/>
</svg>
